# xmcd CD database file
#
# Track frame offsets:
#	150
#	5702
#	25100
#	43092
#	60812
#	76977
#	89867
#	103460
#	124750
#	138985
#	158227
#	176785
#
# Disc length: 2750 seconds
#
# Revision: 0
# Processed by: cddbd v1.5PL3 Copyright (c) Steve Scherf et al.
# Submitted via: CDex 1.51
#
DISCID=a00abc0c
DTITLE=Jackson vibe  - Jackson vibe
DYEAR=2004
DGENRE=JPop
TTITLE0=ようこそ
TTITLE1=愛のうた
TTITLE2=GO! PLAYMATE-INN 〜ゆけよ同士〜
TTITLE3=カミサマ オネガイ
TTITLE4=GETTAWAY
TTITLE5=月見奏
TTITLE6=夜と風と
TTITLE7=DISCOTIC
TTITLE8=ミルキー
TTITLE9=花のワルツ
TTITLE10=虹色の影
TTITLE11=Walk down a bridge
EXTD=YEAR: 2004
EXTT0=
EXTT1=
EXTT2=
EXTT3=
EXTT4=
EXTT5=
EXTT6=
EXTT7=
EXTT8=
EXTT9=
EXTT10=
EXTT11=
PLAYORDER=
